HIERARCHY
ROOT RootJoint
{
    OFFSET   0.000000   0.000000   0.000000
    CHANNELS 6 Xposition Yposition Zposition Xrotation Yrotation Zrotation
    JOINT pelvis_lowerback
    {
        OFFSET   0.000000   0.093605   0.000000
        CHANNELS 3 Xrotation Yrotation Zrotation
        JOINT lowerback_torso
        {
            OFFSET   0.000000   0.100000   0.000000
            CHANNELS 3 Xrotation Yrotation Zrotation
            JOINT torso_head
            {
                OFFSET   0.000000   0.282350   0.000000
                CHANNELS 3 Xrotation Yrotation Zrotation
                End Site
                {
                    OFFSET   0.000000   0.192650   0.000000
                }
            }
            JOINT rTorso_Clavicle
            {
                OFFSET  -0.001000   0.157500   0.000000
                CHANNELS 3 Xrotation Yrotation Zrotation
                JOINT rShoulder
                {
                    OFFSET  -0.117647   0.000000   0.000000
                    CHANNELS 3 Xrotation Yrotation Zrotation
                    JOINT rElbow
                    {
                        OFFSET  -0.245000   0.000000   0.000000
                        CHANNELS 3 Xrotation Yrotation Zrotation
                        JOINT rWrist
                        {
                            OFFSET  -0.240000   0.000000   0.000000
                            CHANNELS 3 Xrotation Yrotation Zrotation
                            End Site
                            {
                                OFFSET  -0.116353  -0.002500   0.000000
                            }
                        }
                    }
                }
            }
            JOINT lTorso_Clavicle
            {
                OFFSET   0.001000   0.157500   0.000000
                CHANNELS 3 Xrotation Yrotation Zrotation
                JOINT lShoulder
                {
                    OFFSET   0.117647   0.000000   0.000000
                    CHANNELS 3 Xrotation Yrotation Zrotation
                    JOINT lElbow
                    {
                        OFFSET   0.245000   0.000000   0.000000
                        CHANNELS 3 Xrotation Yrotation Zrotation
                        JOINT lWrist
                        {
                            OFFSET   0.240000   0.000000   0.000000
                            CHANNELS 3 Xrotation Yrotation Zrotation
                            End Site
                            {
                                OFFSET   0.116353  -0.002500   0.000000
                            }
                        }
                    }
                }
            }
        }
    }
    JOINT rHip
    {
        OFFSET  -0.100000  -0.051395   0.000000
        CHANNELS 3 Xrotation Yrotation Zrotation
        JOINT rKnee
        {
            OFFSET   0.000000  -0.410000   0.000000
            CHANNELS 3 Xrotation Yrotation Zrotation
            JOINT rAnkle
            {
                OFFSET   0.000000  -0.390000   0.000000
                CHANNELS 3 Xrotation Yrotation Zrotation
                JOINT rToeJoint
                {
                    OFFSET   0.000000  -0.050000   0.130000
                    CHANNELS 3 Xrotation Yrotation Zrotation
                    End Site
                    {
                        OFFSET  -0.010000   0.002000   0.060000
                    }
                }
            }
        }
    }
    JOINT lHip
    {
        OFFSET   0.100000  -0.051395   0.000000
        CHANNELS 3 Xrotation Yrotation Zrotation
        JOINT lKnee
        {
            OFFSET   0.000000  -0.410000   0.000000
            CHANNELS 3 Xrotation Yrotation Zrotation
            JOINT lAnkle
            {
                OFFSET   0.000000  -0.390000   0.000000
                CHANNELS 3 Xrotation Yrotation Zrotation
                JOINT lToeJoint
                {
                    OFFSET   0.000000  -0.050000   0.130000
                    CHANNELS 3 Xrotation Yrotation Zrotation
                    End Site
                    {
                        OFFSET   0.010000   0.002000   0.060000
                    }
                }
            }
        }
    }
}
MOTION
Frames: 10
Frame Time:   0.008333
 -2.385829   0.891569   4.961606  -1.946628  13.414168  -4.619142   4.912374  -5.153282  -1.026319   4.212452  -3.676395   4.139130  -2.648769   0.675679   2.702732   3.805205  -0.748697  19.643380  10.253270   6.745300  35.585345  -0.000127  13.856751   0.000099  11.939877   2.183974  -0.061751   2.868791  -5.157589 -17.777320   3.099502 -11.937903 -37.363683  -0.001372 -17.948610  -0.000495  10.059307  -2.504889   1.520299 -17.361503  -2.797275   3.157864  17.639080  -0.004291   0.001975  -0.693118 -11.535370   0.724039  -0.866293   0.000399   0.000111  20.811191  -2.555219  11.678609  15.759865  -0.007964  -0.000214  -5.288309  -3.557471  -3.908418 -34.765038  -0.000575  -0.001788
 -2.387379   0.892637   4.969667  -1.919009  13.466165  -4.757077   4.969896  -5.151900  -0.873958   4.126028  -3.746167   4.163059  -2.666139   0.625195   2.692004   3.829412  -0.738661  19.495988  10.269995   6.851947  35.644975  -0.000135  13.980545   0.000003  11.915840   2.091767  -0.079882   2.880020  -5.176154 -17.786794   3.227510 -11.808446 -37.563613  -0.001197 -17.896523  -0.000421  10.055824  -2.471037   1.483670 -16.813942  -2.839416   3.557606  17.557069  -0.003262   0.001504  -0.854317 -11.352752   0.375129  -0.740902   0.000503   0.000386  20.090307  -2.539010  11.964005  17.756723  -0.008459   0.003712  -3.925425  -3.596095  -4.128539 -36.655544  -0.000388  -0.008465
 -2.388879   0.893800   4.977843  -1.938167  13.457475  -4.868185   5.022278  -5.101367  -0.736820   4.063489  -3.783336   4.178727  -2.672352   0.580268   2.681992   3.849532  -0.725660  19.343822  10.283189   6.958028  35.702482  -0.000151  14.102948  -0.000077  11.896187   2.042694  -0.078216   2.903418  -5.181000 -17.790602   3.354362 -11.681331 -37.757929  -0.001038 -17.848313  -0.000346  10.052945  -2.460580   1.431165 -16.173586  -2.836958   3.955912  17.393285  -0.002263   0.001102  -1.059173 -11.170735   0.027783  -0.642525   0.000532   0.000516  19.338109  -2.530581  12.199904  19.846966  -0.008760   0.006344  -2.551930  -3.620729  -4.177911 -37.787266   0.001148  -0.009945
 -2.390296   0.894923   4.986129  -1.966729  13.381496  -4.959357   5.046866  -5.023428  -0.609566   3.998739  -3.791520   4.185254  -2.676823   0.539486   2.671721   3.865061  -0.711130  19.186359  10.293855   7.058940  35.748497  -0.000179  14.219346  -0.000109  11.878290   2.012353  -0.080393   2.942910  -5.167186 -17.791066   3.483710 -11.550473 -37.942813  -0.000898 -17.799276  -0.000280  10.049517  -2.441275   1.366422 -15.520277  -2.824518   4.336344  17.221656  -0.001444   0.000885  -1.265454 -10.998561  -0.299666  -0.558987   0.000521   0.000531  18.631583  -2.528522  12.407651  21.910932  -0.009351   0.007392  -1.178935  -3.658201  -4.332102 -38.066656   0.001069  -0.008735
 -2.391645   0.895949   4.994474  -1.989655  13.261604  -5.041730   5.048694  -4.934839  -0.486217   3.924687  -3.782743   4.189878  -2.683419   0.501597   2.662467   3.874825  -0.694276  19.026361  10.301392   7.155251  35.782881  -0.000209  14.329662  -0.000104  11.861211   1.991571  -0.096107   2.991426  -5.142007 -17.787555   3.612231 -11.419345 -38.115581  -0.000772 -17.749845  -0.000225  10.045510  -2.406505   1.297520 -14.881784  -2.811148   4.700871  17.064223  -0.000820   0.000785  -1.460153 -10.837441  -0.604416  -0.484386   0.000491   0.000489  17.971111  -2.536607  12.595128  23.867439  -0.009958   0.007329   0.162896  -3.706790  -4.462710 -37.627136   0.000749  -0.006011
 -2.392941   0.896853   5.002841  -2.003006  13.112556  -5.122604   5.034744  -4.842688  -0.363117   3.842718  -3.764045   4.197232  -2.692091   0.466176   2.654715   3.878725  -0.674609  18.867157  10.305634   7.247805  35.807721  -0.000233  14.434264  -0.000078  11.844756   1.978142  -0.125827   3.042639  -5.111565 -17.779662   3.736519 -11.291832 -38.275139  -0.000657 -17.701480  -0.000182  10.041213  -2.360524   1.231024 -14.267415  -2.798309   5.054151  16.929647  -0.000373   0.000737  -1.638236 -10.686832  -0.886938  -0.416726   0.000451   0.000423  17.352947  -2.552422  12.771225  25.711042  -0.010504   0.006665   1.466902  -3.759402  -4.571494 -36.626544   0.000300  -0.003038
 -2.394191   0.897626   5.011202  -2.005270  12.943847  -5.205628   5.010112  -4.750869  -0.238988   3.755348  -3.739773   4.209534  -2.702114   0.433035   2.648506   3.877348  -0.652191  18.711853  10.306795   7.337102  35.825458  -0.000249  14.533461  -0.000043  11.828903   1.971444  -0.166846   3.092502  -5.079770 -17.767734   3.854393 -11.170464 -38.421476  -0.000552 -17.655304  -0.000150  10.036863  -2.309003   1.171048 -13.680834  -2.786418   5.398648  16.820921  -0.000074   0.000703  -1.798124 -10.546080  -1.148446  -0.354908   0.000408   0.000349  16.773821  -2.573750  12.940626  27.441159  -0.010939   0.005719   2.727390  -3.811635  -4.661110 -35.177032  -0.000247  -0.000356
 -2.395356   0.898616   5.019171  -2.088553  12.921190  -5.246877   5.132459  -4.683065  -0.129805   3.677666  -3.739281   4.214443  -2.759109   0.355181   2.699007   3.895410  -0.610019  18.538605  10.277187   7.465311  35.847118  -0.000383  14.780445  -0.000284  11.805356   1.875188  -0.129189   3.114500  -5.127085 -17.711800   3.953192 -11.043985 -38.554553  -0.000405 -17.741944  -0.000112  10.013611  -2.257361   1.107233 -12.901692  -2.804423   5.709055  16.486458   0.000611   0.000667  -1.906468 -10.203746  -1.505815  -0.144975   0.000647   0.000841  15.792619  -2.590102  13.076414  30.160411  -0.009245   0.010309   3.215663  -3.560902  -4.625685 -31.968243  -0.008407   0.016070
 -2.396377   0.899659   5.027115  -2.214591  12.888376  -5.249688   5.249674  -4.585591  -0.047596   3.621220  -3.718677   4.203562  -2.802358   0.282759   2.747068   3.901321  -0.560368  18.359914  10.242169   7.596068  35.860092  -0.000550  15.020549  -0.000509  11.785739   1.835002  -0.095117   3.132364  -5.170495 -17.646504   4.043363 -10.928962 -38.674021  -0.000316 -17.828612  -0.000120   9.992876  -2.253906   1.051170 -12.055241  -2.783374   5.984551  16.104525   0.001208   0.000635  -2.047466  -9.873763  -1.855983   0.049008   0.000810   0.001180  14.799653  -2.597161  13.133314  32.827921  -0.006321   0.013619   3.675059  -3.323160  -4.594453 -29.042892  -0.011183   0.028323
 -2.397287   0.900662   5.035080  -2.357185  12.854039  -5.231366   5.344095  -4.477323   0.017346   3.563551  -3.684135   4.182684  -2.839906   0.215761   2.790585   3.900988  -0.509258  18.178724  10.206128   7.721962  35.863747  -0.000729  15.247701  -0.000662  11.767736   1.817755  -0.076034   3.154111  -5.203276 -17.575726   4.130941 -10.817180 -38.781491  -0.000270 -17.909031  -0.000161   9.973128  -2.258005   1.001783 -11.188468  -2.748395   6.232701  15.720222   0.001654   0.000618  -2.200517  -9.563187  -2.188438   0.222956   0.000897   0.001367  13.824153  -2.605991  13.140470  35.327515  -0.003110   0.015378   4.104023  -3.101524  -4.567136 -26.365194  -0.010783   0.036236
